<svg width="257" height="82" viewBox="0 0 257 82" fill="none" xmlns="http://www.w3.org/2000/svg">
<rect width="257" height="82" rx="9" fill="#8643CC"/>
<path d="M88.2798 53.9082H73.6851L70.4072 63H65.6699L78.9727 28.1641H82.9922L96.3188 63H91.6055L88.2798 53.9082ZM75.0728 50.1279H86.916L80.9824 33.8345L75.0728 50.1279ZM104.501 37.1123L104.645 40.3662C106.623 37.8779 109.207 36.6338 112.397 36.6338C117.868 36.6338 120.627 39.7202 120.675 45.8931V63H116.249V45.8691C116.233 44.0029 115.802 42.6232 114.957 41.73C114.128 40.8368 112.828 40.3901 111.057 40.3901C109.622 40.3901 108.361 40.7729 107.277 41.5386C106.192 42.3042 105.347 43.3091 104.741 44.5532V63H100.314V37.1123H104.501ZM133.356 30.8438V37.1123H138.189V40.5337H133.356V56.5879C133.356 57.6247 133.571 58.4062 134.002 58.9326C134.433 59.443 135.166 59.6982 136.203 59.6982C136.714 59.6982 137.415 59.6025 138.309 59.4111V63C137.144 63.319 136.012 63.4785 134.911 63.4785C132.933 63.4785 131.442 62.8804 130.437 61.6841C129.432 60.4878 128.93 58.7891 128.93 56.5879V40.5337H124.216V37.1123H128.93V30.8438H133.356ZM154.124 63.4785C150.614 63.4785 147.759 62.3301 145.558 60.0332C143.357 57.7204 142.256 54.634 142.256 50.7739V49.9604C142.256 47.3924 142.743 45.1035 143.716 43.0938C144.705 41.068 146.076 39.4889 147.831 38.3564C149.602 37.208 151.516 36.6338 153.573 36.6338C156.939 36.6338 159.555 37.7424 161.421 39.9595C163.287 42.1766 164.22 45.3507 164.22 49.4819V51.3242H146.683C146.746 53.8763 147.488 55.9419 148.908 57.521C150.343 59.0841 152.162 59.8657 154.363 59.8657C155.926 59.8657 157.25 59.5467 158.334 58.9087C159.419 58.2707 160.368 57.4253 161.182 56.3726L163.885 58.478C161.716 61.8117 158.462 63.4785 154.124 63.4785ZM153.573 40.2705C151.787 40.2705 150.287 40.9245 149.075 42.2324C147.863 43.5244 147.113 45.3428 146.826 47.6875H159.794V47.3525C159.666 45.1035 159.06 43.3649 157.976 42.1367C156.891 40.8926 155.424 40.2705 153.573 40.2705ZM181.877 41.084C181.208 40.9723 180.482 40.9165 179.7 40.9165C176.797 40.9165 174.827 42.1527 173.791 44.625V63H169.364V37.1123H173.671L173.743 40.103C175.194 37.7902 177.252 36.6338 179.916 36.6338C180.777 36.6338 181.431 36.7454 181.877 36.9688V41.084ZM190.778 63H186.352V37.1123H190.778V63ZM185.993 30.2456C185.993 29.5278 186.208 28.9217 186.639 28.4272C187.085 27.9328 187.739 27.6855 188.601 27.6855C189.462 27.6855 190.116 27.9328 190.562 28.4272C191.009 28.9217 191.232 29.5278 191.232 30.2456C191.232 30.9634 191.009 31.5615 190.562 32.04C190.116 32.5186 189.462 32.7578 188.601 32.7578C187.739 32.7578 187.085 32.5186 186.639 32.04C186.208 31.5615 185.993 30.9634 185.993 30.2456ZM196.711 49.8169C196.711 47.2808 197.206 44.9998 198.195 42.9741C199.2 40.9484 200.587 39.3853 202.358 38.2847C204.144 37.1841 206.178 36.6338 208.459 36.6338C211.984 36.6338 214.831 37.854 217 40.2944C219.186 42.7349 220.278 45.9808 220.278 50.0322V50.3433C220.278 52.8634 219.792 55.1284 218.819 57.1382C217.862 59.132 216.482 60.6872 214.68 61.8037C212.893 62.9202 210.836 63.4785 208.507 63.4785C204.998 63.4785 202.151 62.2583 199.965 59.8179C197.796 57.3774 196.711 54.1475 196.711 50.1279V49.8169ZM201.162 50.3433C201.162 53.2144 201.824 55.5192 203.147 57.2578C204.487 58.9964 206.274 59.8657 208.507 59.8657C210.756 59.8657 212.542 58.9884 213.866 57.2339C215.19 55.4634 215.852 52.991 215.852 49.8169C215.852 46.9777 215.174 44.6808 213.818 42.9263C212.479 41.1558 210.692 40.2705 208.459 40.2705C206.274 40.2705 204.511 41.1398 203.171 42.8784C201.832 44.617 201.162 47.1053 201.162 50.3433ZM238.342 41.084C237.672 40.9723 236.947 40.9165 236.165 40.9165C233.262 40.9165 231.292 42.1527 230.255 44.625V63H225.829V37.1123H230.136L230.208 40.103C231.659 37.7902 233.717 36.6338 236.38 36.6338C237.242 36.6338 237.896 36.7454 238.342 36.9688V41.084Z" fill="white"/>
<path d="M17.9354 43.3762L37.5475 64.0148C38.795 65.3284 40.8178 65.3284 42.0647 64.0148C43.3118 62.7025 43.3118 60.5739 42.0647 59.2617L24.7111 40.9997L42.0642 22.7383C43.3113 21.4254 43.3113 19.2971 42.0642 17.9847C40.8171 16.6718 38.7945 16.6718 37.547 17.9847L17.9349 38.6236C17.3114 39.2801 17 40.1396 17 40.9995C17 41.8599 17.312 42.7201 17.9354 43.3762Z" fill="white"/>
</svg>
