<svg width="257" height="82" viewBox="0 0 257 82" fill="none" xmlns="http://www.w3.org/2000/svg">
<rect width="257" height="82" rx="9" fill="#8643CC"/>
<path d="M25.6372 49.3623V63H21.0435V28.1641H33.8916C37.7038 28.1641 40.6865 29.137 42.8398 31.083C45.0091 33.029 46.0938 35.605 46.0938 38.811C46.0938 42.1925 45.033 44.8005 42.9116 46.6348C40.8062 48.4531 37.7835 49.3623 33.8438 49.3623H25.6372ZM25.6372 45.606H33.8916C36.348 45.606 38.2301 45.0317 39.5381 43.8833C40.846 42.7189 41.5 41.0441 41.5 38.8589C41.5 36.7853 40.846 35.1265 39.5381 33.8823C38.2301 32.6382 36.4357 31.9922 34.1548 31.9443H25.6372V45.606ZM63.7749 41.084C63.105 40.9723 62.3792 40.9165 61.5977 40.9165C58.6947 40.9165 56.7248 42.1527 55.688 44.625V63H51.2617V37.1123H55.5684L55.6401 40.103C57.0916 37.7902 59.1493 36.6338 61.813 36.6338C62.6743 36.6338 63.3283 36.7454 63.7749 36.9688V41.084ZM66.2153 49.8169C66.2153 47.2808 66.7098 44.9998 67.6987 42.9741C68.7036 40.9484 70.0913 39.3853 71.8618 38.2847C73.6483 37.1841 75.682 36.6338 77.9629 36.6338C81.488 36.6338 84.3351 37.854 86.5044 40.2944C88.6896 42.7349 89.7822 45.9808 89.7822 50.0322V50.3433C89.7822 52.8634 89.2957 55.1284 88.3228 57.1382C87.3657 59.132 85.986 60.6872 84.1836 61.8037C82.3971 62.9202 80.3395 63.4785 78.0107 63.4785C74.5016 63.4785 71.6545 62.2583 69.4692 59.8179C67.3 57.3774 66.2153 54.1475 66.2153 50.1279V49.8169ZM70.6655 50.3433C70.6655 53.2144 71.3275 55.5192 72.6514 57.2578C73.9912 58.9964 75.7777 59.8657 78.0107 59.8657C80.2598 59.8657 82.0462 58.9884 83.3701 57.2339C84.694 55.4634 85.356 52.991 85.356 49.8169C85.356 46.9777 84.6781 44.6808 83.3223 42.9263C81.9824 41.1558 80.196 40.2705 77.9629 40.2705C75.7777 40.2705 74.0151 41.1398 72.6753 42.8784C71.3354 44.617 70.6655 47.1053 70.6655 50.3433ZM79.9727 26.25H85.332L78.9199 33.2842H75.355L79.9727 26.25ZM103.492 46.563L109.234 37.1123H114.402L105.932 49.9126L114.665 63H109.545L103.563 53.3101L97.582 63H92.438L101.171 49.9126L92.7012 37.1123H97.8213L103.492 46.563ZM123.924 63H119.498V37.1123H123.924V63ZM119.139 30.2456C119.139 29.5278 119.354 28.9217 119.785 28.4272C120.232 27.9328 120.886 27.6855 121.747 27.6855C122.608 27.6855 123.262 27.9328 123.709 28.4272C124.156 28.9217 124.379 29.5278 124.379 30.2456C124.379 30.9634 124.156 31.5615 123.709 32.04C123.262 32.5186 122.608 32.7578 121.747 32.7578C120.886 32.7578 120.232 32.5186 119.785 32.04C119.354 31.5615 119.139 30.9634 119.139 30.2456ZM135.193 37.1123L135.313 39.9834C137.211 37.7503 139.771 36.6338 142.993 36.6338C146.614 36.6338 149.078 38.0215 150.386 40.7969C151.248 39.5527 152.364 38.5479 153.736 37.7822C155.124 37.0166 156.758 36.6338 158.641 36.6338C164.319 36.6338 167.206 39.6405 167.302 45.6538V63H162.875V45.917C162.875 44.0667 162.453 42.687 161.607 41.7778C160.762 40.8527 159.342 40.3901 157.349 40.3901C155.706 40.3901 154.342 40.8846 153.257 41.8735C152.173 42.8465 151.543 44.1624 151.367 45.8213V63H146.917V46.0366C146.917 42.2723 145.075 40.3901 141.39 40.3901C138.487 40.3901 136.501 41.6263 135.433 44.0986V63H131.006V37.1123H135.193ZM172.829 49.8169C172.829 47.2808 173.323 44.9998 174.312 42.9741C175.317 40.9484 176.705 39.3853 178.475 38.2847C180.262 37.1841 182.295 36.6338 184.576 36.6338C188.101 36.6338 190.948 37.854 193.118 40.2944C195.303 42.7349 196.396 45.9808 196.396 50.0322V50.3433C196.396 52.8634 195.909 55.1284 194.936 57.1382C193.979 59.132 192.599 60.6872 190.797 61.8037C189.01 62.9202 186.953 63.4785 184.624 63.4785C181.115 63.4785 178.268 62.2583 176.083 59.8179C173.913 57.3774 172.829 54.1475 172.829 50.1279V49.8169ZM177.279 50.3433C177.279 53.2144 177.941 55.5192 179.265 57.2578C180.604 58.9964 182.391 59.8657 184.624 59.8657C186.873 59.8657 188.66 58.9884 189.983 57.2339C191.307 55.4634 191.969 52.991 191.969 49.8169C191.969 46.9777 191.291 44.6808 189.936 42.9263C188.596 41.1558 186.809 40.2705 184.576 40.2705C182.391 40.2705 180.628 41.1398 179.289 42.8784C177.949 44.617 177.279 47.1053 177.279 50.3433Z" fill="white"/>
<path d="M238.065 43.3762L218.453 64.0148C217.205 65.3284 215.182 65.3284 213.935 64.0148C212.688 62.7025 212.688 60.5739 213.935 59.2617L231.289 40.9997L213.936 22.7383C212.689 21.4254 212.689 19.2971 213.936 17.9847C215.183 16.6718 217.205 16.6718 218.453 17.9847L238.065 38.6236C238.689 39.2801 239 40.1396 239 40.9995C239 41.8599 238.688 42.7201 238.065 43.3762Z" fill="white"/>
</svg>
